<?xml version="1.0" encoding="utf-8"?>
<!-- Generator: Adobe Illustrator 16.0.3, SVG Export Plug-In . SVG Version: 6.00 Build 0)  -->
<!DOCTYPE svg PUBLIC "-//W3C//DTD SVG 1.1//EN" "http://www.w3.org/Graphics/SVG/1.1/DTD/svg11.dtd">
<svg version="1.1" id="Capa_2" xmlns="http://www.w3.org/2000/svg" xmlns:xlink="http://www.w3.org/1999/xlink" x="0px" y="0px"
	 width="992px" height="132px" viewBox="0 0 992 132" enable-background="new 0 0 992 132" xml:space="preserve">
<polygon stroke="#000000" points="424,124.75 444.75,124.75 444.75,40.75 483.25,101 521.75,40.75 521.75,124.75 542.75,124.75 
	542.75,4.75 519.75,4.75 483.375,62.25 446.75,4.75 424,4.75 "/>
<path stroke="#000000" d="M652,38.75v86h20.5V76.5c0,0,3.5-19.063,24.125-19.375v-20.5c0,0-14.938-1.063-24,9.5l-0.125-7.25
	L652,38.75z"/>
<polygon stroke="#000000" points="706,4.75 706,124.75 726.75,124.75 726.75,97 753.5,124.75 782,124.75 740.737,81.9 782,39 
	753.875,39.25 726.75,67.125 726.25,4.75 "/>
<path fill="none" stroke="#000000" stroke-width="18" d="M842.631,107.629c-6.121,5.717-14.27,9.204-23.217,9.204
	c-19.005,0-34.414-15.744-34.414-35.166c0-19.423,15.409-35.167,34.414-35.167c19.01,0,34.419,15.744,34.419,35.167L793,81.666"/>
<path d="M870.833,21.667v81.208c0,0-2.628,20.602,24.334,21.292c7.208,0.185,21.666,0,21.666,0l-4.333-20.375l-16.833-0.125
	c0,0-3.542-0.375-3.542-4.917c0-2.284-0.042-29.083-0.042-29.083H908l-4.667-20.333H892l-0.125-32.667L870.833,21.667z"/>
<path d="M969.25,64l14.375-14.5c0,0-9.125-7.125-11.375-8.125s-9.75-5-16.75-4.625s-12.875-0.625-17.25,1.875
	s-6.75,3.25-9.625,6.875S924,51.75,923,55.625s-1.75,7.25-1,11.125s1.25,6.75,3.875,10s6.125,6.75,8.5,8s9.625,5,9.625,5l10,3.375
	l8.625,3.25c0,0,3.25,1.5,2.875,5.125s-1.509,4.035-2.469,4.672c-1.203,0.798-5.073,2.335-6.531,2.203
	c-0.8-0.072-5.125,0-6.625-0.625s-6.25-1.875-8.375-4s-4.5-4-4.5-4l-13.375,14.5c0,0,1.625,1.75,3.75,3.25s14.209,8.75,23.792,9.167
	s18.803-1.646,22.666-3.833c4.418-2.501,10.251-9.917,11.334-15.584c0.954-4.995,1.427-13.759-2.417-19.583
	c-3.917-5.935-14.833-12.167-16.583-12.833c-1.75-0.667-21.707-7.137-22.895-9.667c-0.896-1.91-1.434-3.665,1.309-7.439
	c1.551-2.134,10.17-2.645,14.586-1.395C962.825,57.369,969.25,64,969.25,64z"/>
<path d="M640.92,39.239v84.88h-20.441V81.764c0-6.776-2.385-12.538-7.158-17.282c-4.771-4.743-10.563-7.116-17.378-7.116
	c-3.296,0-6.444,0.623-9.455,1.864c-3.012,1.243-5.653,2.996-7.921,5.252c-4.772,4.744-7.16,10.504-7.16,17.282
	c0,6.663,2.388,12.367,7.16,17.111c2.268,2.369,4.906,4.149,7.921,5.336c3.005,1.188,6.159,1.777,9.455,1.777
	c3.408,0,6.474-0.565,9.198-1.693l7.327,18.126c-5.226,2.596-11.304,3.896-18.229,3.896c-6.246,0-12.014-1.155-17.29-3.475
	c-5.286-2.313-9.854-5.505-13.717-9.571s-6.871-8.811-9.028-14.233c-2.158-5.422-3.236-11.18-3.236-17.281
	c0-6.21,1.078-12.027,3.236-17.447c2.157-5.422,5.166-10.17,9.028-14.234c3.864-4.064,8.435-7.256,13.717-9.569
	c5.279-2.313,11.044-3.476,17.29-3.476c5.56,0,10.505,0.848,14.821,2.542c4.315,1.692,8.12,3.843,11.415,6.438v-6.777h20.445V39.239
	z"/>
<g>
	<path fill="#142F7F" d="M96.725,22.854l-62.355,81.658h62.354v20.332H18.697H5.75v-16.603L68.1,26.583H5.75V6.25h78.025h12.947
		v16.604H96.725z"/>
	<path fill="#142F7F" d="M185.14,40.135v84.714h-20.444v-6.438c-3.068,2.601-6.535,4.719-10.39,6.351
		c-3.865,1.64-8.177,2.458-12.947,2.458c-5.567,0-10.623-1.045-15.165-3.133c-4.543-2.091-8.431-4.938-11.669-8.555
		c-3.236-3.615-5.737-7.854-7.491-12.71c-1.765-4.854-2.641-10.05-2.641-15.585V40.135h20.44v47.102
		c0,5.309,1.986,9.94,5.964,13.894c3.862,3.841,8.518,5.764,13.967,5.764c5.563,0,10.279-1.919,14.141-5.764
		c3.859-3.842,5.793-8.471,5.793-13.894V40.135H185.14z"/>
	<path fill="#142F7F" d="M286.675,37.762c4.772,0,8.948,0.905,12.523,2.711c3.578,1.808,6.502,4.295,8.775,7.458
		c2.268,3.164,3.976,6.834,5.112,11.015c1.134,4.178,1.701,8.698,1.701,13.551v52.353h-20.439V72.496
		c0-3.95-1.426-7.342-4.261-10.164c-2.729-2.826-6.133-4.239-10.222-4.239s-7.498,1.413-10.223,4.239
		c-2.844,2.822-4.261,6.208-4.261,10.164v52.353h-20.441V72.496c0-3.95-1.424-7.342-4.263-10.164
		c-1.364-1.468-2.924-2.541-4.686-3.221c-1.762-0.678-3.605-1.017-5.536-1.017c-4.203,0-7.665,1.413-10.392,4.237
		c-2.838,2.824-4.26,6.214-4.26,10.168v52.353h-20.444V40.135h20.444v7.456c3.292-2.822,6.757-5.165,10.39-7.029
		c3.636-1.863,7.327-2.796,11.072-2.796c5.113,0,9.313,1.014,12.607,3.046c3.295,2.035,6.247,4.86,8.861,8.472
		c3.066-3.273,7.042-6.014,11.924-8.217C275.542,38.866,280.881,37.762,286.675,37.762z"/>
	<path fill="#142F7F" d="M413.253,39.969v84.88h-20.441V82.493c0-6.776-2.384-12.538-7.157-17.282
		c-4.772-4.744-10.563-7.116-17.378-7.116c-3.296,0-6.444,0.624-9.455,1.864c-3.012,1.243-5.653,2.996-7.921,5.252
		c-4.772,4.744-7.16,10.504-7.16,17.282c0,6.663,2.388,12.367,7.16,17.111c2.269,2.369,4.906,4.149,7.921,5.336
		c3.005,1.188,6.159,1.777,9.455,1.777c3.408,0,6.473-0.565,9.198-1.693l7.328,18.126c-5.226,2.596-11.303,3.896-18.229,3.896
		c-6.247,0-12.013-1.155-17.29-3.475c-5.286-2.313-9.855-5.505-13.717-9.571c-3.862-4.066-6.871-8.811-9.029-14.233
		c-2.157-5.422-3.235-11.18-3.235-17.281c0-6.21,1.078-12.027,3.235-17.447c2.158-5.423,5.167-10.17,9.029-14.235
		c3.864-4.065,8.435-7.255,13.717-9.569c5.279-2.314,11.043-3.476,17.29-3.476c5.56,0,10.505,0.848,14.821,2.542
		c4.315,1.692,8.121,3.843,11.416,6.438v-6.776h20.444V39.969z"/>
</g>
</svg>
